<svg width="24" height="24" viewBox="0 0 24 24" fill="none" xmlns="http://www.w3.org/2000/svg">
<path d="M15.7344 14.4819C15.3472 14.4819 15.0326 14.1685 15.0315 13.7808C15.0302 13.3926 15.3441 13.0768 15.7324 13.0757C17.4987 13.0702 19.179 12.0038 20.4639 10.0728C21.6971 8.21936 22.4216 5.79559 22.532 3.18506H19.435C19.0466 3.18506 18.7319 2.8703 18.7319 2.48193C18.7319 2.09357 19.0466 1.77881 19.435 1.77881H23.25C23.6384 1.77881 23.9531 2.09357 23.9531 2.48193C23.9531 5.63245 23.1297 8.6048 21.6348 10.8519C20.0817 13.1857 17.9872 14.475 15.7368 14.4819C15.7361 14.4819 15.7354 14.4819 15.7344 14.4819Z" fill="#FF8E1D"/>
<path d="M8.17181 14.4819C8.1709 14.4819 8.17035 14.4819 8.16962 14.4819C5.91925 14.475 3.82452 13.1857 2.27161 10.8519C0.77655 8.6048 -0.046875 5.63245 -0.046875 2.48193C-0.046875 2.09357 0.267883 1.77881 0.65625 1.77881H4.47125C4.85962 1.77881 5.17438 2.09357 5.17438 2.48193C5.17438 2.8703 4.85962 3.18506 4.47125 3.18506H1.37421C1.48462 5.79559 2.20917 8.21936 3.44238 10.0728C4.72723 12.0038 6.40759 13.0702 8.17383 13.0757C8.56219 13.0768 8.87604 13.3926 8.87476 13.7808C8.87366 14.1685 8.55908 14.4818 8.17181 14.4819Z" fill="#FFB023"/>
<path d="M19.4844 0.046875H4.42175C4.03357 0.046875 3.71863 0.361633 3.71863 0.75C3.71863 4.88031 4.5285 8.7746 5.99884 11.7153C6.94092 13.5992 8.09302 14.9669 9.36707 15.7498V19.578C9.36707 19.9664 9.68201 20.2811 10.0702 20.2811H13.8359C14.2243 20.2811 14.5391 19.9664 14.5391 19.578V15.7498C15.8131 14.967 16.9654 13.5992 17.9073 11.7153C19.3776 8.7746 20.1875 4.88031 20.1875 0.75C20.1875 0.361633 19.8727 0.046875 19.4844 0.046875Z" fill="#FFD12B"/>
<path d="M14.5391 19.578V15.7498C15.8132 14.967 16.9655 13.5992 17.9073 11.7153C19.3777 8.7746 20.1876 4.88031 20.1876 0.75C20.1876 0.361633 19.8728 0.046875 19.4844 0.046875H11.9531V20.2811H13.836C14.2244 20.2811 14.5391 19.9664 14.5391 19.578Z" fill="#FFB023"/>
<path d="M15.7187 18.875H8.18756C6.76172 18.875 5.60156 20.0352 5.60156 21.461V23.3439C5.60156 23.7321 5.91632 24.0468 6.30469 24.0468H17.6016C17.9899 24.0468 18.3047 23.7321 18.3047 23.3439V21.461C18.3047 20.0352 17.1447 18.875 15.7187 18.875Z" fill="#FF8E1D"/>
<path d="M15.7187 18.875H11.9531V24.0468H17.6016C17.9899 24.0468 18.3047 23.7321 18.3047 23.3439V21.461C18.3047 20.0352 17.1447 18.875 15.7187 18.875Z" fill="#FF6D15"/>
<path d="M18.3546 24.0467H5.55151C5.16333 24.0467 4.84839 23.7319 4.84839 23.3437C4.84839 22.9554 5.16333 22.6406 5.55151 22.6406H18.3546C18.743 22.6406 19.0577 22.9554 19.0577 23.3437C19.0577 23.7319 18.743 24.0467 18.3546 24.0467Z" fill="#FFB023"/>
<path d="M18.3547 22.6406H11.9531V24.0467H18.3547C18.743 24.0467 19.0578 23.7319 19.0578 23.3437C19.0578 22.9554 18.743 22.6406 18.3547 22.6406Z" fill="#FF8E1D"/>
</svg>
