<svg width="25" height="25" viewBox="0 0 25 25" fill="none" xmlns="http://www.w3.org/2000/svg">
<path d="M0.399597 11.5288L9.42798 2.50026C9.6857 2.24254 10.0292 2.10107 10.3954 2.10107C10.7621 2.10107 11.1054 2.24274 11.3631 2.50026L12.1828 3.32017C12.4403 3.57748 12.5822 3.92118 12.5822 4.28764C12.5822 4.6539 12.4403 5.00918 12.1828 5.2665L6.9158 10.5451H23.6494C24.4039 10.5451 25 11.1358 25 11.8904V13.0496C25 13.8042 24.4039 14.4544 23.6494 14.4544H6.85605L12.1826 19.7625C12.4401 20.0202 12.582 20.3546 12.582 20.721C12.582 21.0871 12.4401 21.4263 12.1826 21.6838L11.3629 22.5011C11.1052 22.7588 10.7619 22.8993 10.3952 22.8993C10.029 22.8993 9.6855 22.757 9.42777 22.4993L0.399393 13.4709C0.141062 13.2124 -0.00100899 12.8672 7.62939e-06 12.5004C-0.000804901 12.1323 0.141062 11.787 0.399597 11.5288Z" fill="#1A3748"/>
</svg>
