<svg width="26" height="26" viewBox="0 0 26 26" fill="none" xmlns="http://www.w3.org/2000/svg">
<path d="M25.3882 10.0396L23.3899 9.60519C23.2162 9.07318 23.0009 8.55426 22.7468 8.05438L23.8531 6.33357C24.0507 6.02611 24.0072 5.62244 23.749 5.36417L20.6358 2.25104C20.3776 1.99277 19.9739 1.94933 19.6664 2.1469L17.9456 3.25317C17.4457 2.99907 16.9268 2.78384 16.3948 2.61008L15.9604 0.611755C15.8828 0.2547 15.5666 0 15.2012 0H10.7988C10.4334 0 10.1172 0.2547 10.0396 0.611755L9.60519 2.61008C9.07318 2.78384 8.55426 2.99907 8.05438 3.25317L6.33357 2.1469C6.02611 1.94933 5.62244 1.99277 5.36417 2.25104L2.25104 5.36417C1.99277 5.62244 1.94933 6.02611 2.1469 6.33357L3.25317 8.05438C2.99907 8.55426 2.78384 9.07318 2.61008 9.60519L0.611755 10.0396C0.2547 10.1174 0 10.4334 0 10.7988V15.2012C0 15.5666 0.2547 15.8826 0.611755 15.9604L2.61008 16.3948C2.78384 16.9268 2.99907 17.4457 3.25317 17.9456L2.1469 19.6664C1.94933 19.9739 1.99277 20.3776 2.25104 20.6358L5.36417 23.749C5.62244 24.0072 6.02611 24.0507 6.33357 23.8531L8.05438 22.7468C8.55426 23.0009 9.07318 23.2162 9.60519 23.3899L10.0396 25.3882C10.1172 25.7453 10.4334 26 10.7988 26H15.2012C15.5666 26 15.8828 25.7453 15.9604 25.3882L16.3948 23.3899C16.9268 23.2162 17.4457 23.0009 17.9456 22.7468L19.6664 23.8531C19.9739 24.0507 20.3776 24.0074 20.6358 23.749L23.749 20.6358C24.0072 20.3776 24.0507 19.9739 23.8531 19.6664L22.7468 17.9456C23.0009 17.4457 23.2162 16.9268 23.3899 16.3948L25.3882 15.9604C25.7453 15.8826 26 15.5666 26 15.2012V10.7988C26 10.4334 25.7453 10.1174 25.3882 10.0396ZM17.6614 13C17.6614 15.5702 15.5702 17.6614 13 17.6614C10.4298 17.6614 8.33864 15.5702 8.33864 13C8.33864 10.4298 10.4298 8.33864 13 8.33864C15.5702 8.33864 17.6614 10.4298 17.6614 13Z" fill="#728EA2"/>
</svg>
