<svg width="74" height="76" viewBox="0 0 74 76" fill="none" xmlns="http://www.w3.org/2000/svg">
<path d="M31.8941 51.1583C44.6549 64.0199 41.4492 67.8415 25.2148 72.5321C24.7322 74.9152 25.6808 75.3612 28.2205 75.5377C39.7421 71.795 42.1331 69.1867 46.2546 64.5169V58.5055C53.5327 60.5248 55.4815 63.5148 58.9453 68.8584L62.6189 64.5169C57.6193 57.3244 52.3554 54.2047 41.5791 49.1545C41.0551 44.0112 41.4553 41.1832 46.2546 36.4638C57.9464 38.0317 63.449 37.5381 70.3001 32.7902C70.5981 30.4505 70.8576 29.0733 67.2944 29.4505C57.9686 35.1797 51.3316 33.7446 39.5753 31.4543C33.5569 35.9907 32.351 40.8025 31.8941 51.1583Z" fill="#1A3748"/>
<circle cx="45.4653" cy="24.3794" r="5.00948" fill="#1A3748"/>
<ellipse cx="58.7416" cy="12.0455" rx="7.75664" ry="9.81548" transform="rotate(-22.651 58.7416 12.0455)" fill="#1A3748"/>
<ellipse cx="58.9214" cy="12.4769" rx="5.93155" ry="7.47846" transform="rotate(-22.651 58.9214 12.4769)" fill="#728EA2"/>
<rect x="60.5384" y="19.9055" width="2.73764" height="13.0873" transform="rotate(-22.651 60.5384 19.9055)" fill="#1A3748"/>
<circle cx="5.66535" cy="24.5499" r="5.66535" fill="#74BA5F"/>
</svg>
