<svg width="174" height="19" viewBox="0 0 174 19" fill="none" xmlns="http://www.w3.org/2000/svg">
<path d="M8.44824 18.293C12.7695 18.293 15.7847 15.8149 16.1997 11.8843H12.6108C12.2202 13.9717 10.6455 15.2534 8.46045 15.2534C5.64062 15.2534 3.87061 12.9341 3.87061 9.17432C3.87061 5.46338 5.66504 3.13184 8.44824 3.13184C10.5967 3.13184 12.2568 4.54785 12.5986 6.7085H16.1875C15.9067 2.76562 12.6841 0.0800781 8.44824 0.0800781C3.3457 0.0800781 0.11084 3.51025 0.11084 9.18652C0.11084 14.875 3.32129 18.293 8.44824 18.293ZM22.1689 11.5547H25.123L28.4067 18H32.5815L28.8706 11.0054C30.897 10.2119 32.0688 8.25879 32.0688 6.00049C32.0688 2.52148 29.7495 0.385254 25.6968 0.385254H18.4824V18H22.1689V11.5547ZM22.1689 3.26611H25.3062C27.1372 3.26611 28.2847 4.36475 28.2847 6.07373C28.2847 7.81934 27.1982 8.88135 25.3428 8.88135H22.1689V3.26611ZM42.4448 0.0800781C37.2202 0.0800781 33.9487 3.5835 33.9487 9.19873C33.9487 14.8018 37.2202 18.293 42.4448 18.293C47.6572 18.293 50.9409 14.8018 50.9409 9.19873C50.9409 3.5835 47.6572 0.0800781 42.4448 0.0800781ZM42.4448 3.15625C45.3257 3.15625 47.1689 5.5 47.1689 9.19873C47.1689 12.8853 45.3257 15.2168 42.4448 15.2168C39.5518 15.2168 37.7085 12.8853 37.7085 9.19873C37.7085 5.5 39.564 3.15625 42.4448 3.15625ZM52.6499 12.9707C52.7598 16.291 55.5552 18.293 59.7544 18.293C64.1611 18.293 66.8589 16.1201 66.8589 12.6777C66.8589 10.0044 65.2354 8.50293 61.5122 7.7583L59.6445 7.37988C57.5693 6.96484 56.7148 6.29346 56.7148 5.20703C56.7148 3.91309 57.9355 3.05859 59.7544 3.05859C61.6099 3.05859 62.916 3.96191 63.0381 5.46338H66.5171C66.4561 2.22852 63.8682 0.0800781 59.7544 0.0800781C55.8359 0.0800781 53.0283 2.21631 53.0283 5.43896C53.0283 8.06348 54.7495 9.74805 58.2651 10.4438L60.1206 10.8101C62.3301 11.2617 63.1602 11.9209 63.1602 13.0806C63.1602 14.3745 61.8174 15.3267 59.8521 15.3267C57.8501 15.3267 56.3608 14.4478 56.1289 12.9707H52.6499ZM68.4458 12.9707C68.5557 16.291 71.3511 18.293 75.5503 18.293C79.957 18.293 82.6548 16.1201 82.6548 12.6777C82.6548 10.0044 81.0312 8.50293 77.3081 7.7583L75.4404 7.37988C73.3652 6.96484 72.5107 6.29346 72.5107 5.20703C72.5107 3.91309 73.7314 3.05859 75.5503 3.05859C77.4058 3.05859 78.7119 3.96191 78.834 5.46338H82.313C82.252 2.22852 79.6641 0.0800781 75.5503 0.0800781C71.6318 0.0800781 68.8242 2.21631 68.8242 5.43896C68.8242 8.06348 70.5454 9.74805 74.061 10.4438L75.9165 10.8101C78.126 11.2617 78.9561 11.9209 78.9561 13.0806C78.9561 14.3745 77.6133 15.3267 75.6479 15.3267C73.646 15.3267 72.1567 14.4478 71.9248 12.9707H68.4458ZM97.6572 18.293C101.979 18.293 104.994 15.8149 105.409 11.8843H101.82C101.429 13.9717 99.8545 15.2534 97.6694 15.2534C94.8496 15.2534 93.0796 12.9341 93.0796 9.17432C93.0796 5.46338 94.874 3.13184 97.6572 3.13184C99.8057 3.13184 101.466 4.54785 101.808 6.7085H105.396C105.116 2.76562 101.893 0.0800781 97.6572 0.0800781C92.5547 0.0800781 89.3198 3.51025 89.3198 9.18652C89.3198 14.875 92.5303 18.293 97.6572 18.293ZM115.638 0.0800781C110.414 0.0800781 107.142 3.5835 107.142 9.19873C107.142 14.8018 110.414 18.293 115.638 18.293C120.851 18.293 124.134 14.8018 124.134 9.19873C124.134 3.5835 120.851 0.0800781 115.638 0.0800781ZM115.638 3.15625C118.519 3.15625 120.362 5.5 120.362 9.19873C120.362 12.8853 118.519 15.2168 115.638 15.2168C112.745 15.2168 110.902 12.8853 110.902 9.19873C110.902 5.5 112.757 3.15625 115.638 3.15625ZM130.201 0.385254H126.515V11.7744C126.515 15.6562 129.383 18.293 133.9 18.293C138.404 18.293 141.273 15.6562 141.273 11.7744V0.385254H137.586V11.4082C137.586 13.6665 136.256 15.1436 133.9 15.1436C131.532 15.1436 130.201 13.6665 130.201 11.4082V0.385254ZM147.901 11.5547H150.855L154.139 18H158.314L154.603 11.0054C156.629 10.2119 157.801 8.25879 157.801 6.00049C157.801 2.52148 155.482 0.385254 151.429 0.385254H144.215V18H147.901V11.5547ZM147.901 3.26611H151.039C152.87 3.26611 154.017 4.36475 154.017 6.07373C154.017 7.81934 152.931 8.88135 151.075 8.88135H147.901V3.26611ZM168.128 18V3.4248H173.231V0.385254H159.352V3.4248H164.442V18H168.128Z" fill="#1A3748"/>
</svg>
