<svg width="247" height="197" viewBox="0 0 247 197" fill="none" xmlns="http://www.w3.org/2000/svg">
<g filter="url(#filter0_d)">
<path opacity="0.05" d="M51.6599 171.282C51.6599 171.282 51.447 178.964 58.2899 180.458C65.1327 181.952 55.5101 186.434 51.6599 185.365C47.8096 184.296 31.9889 170.426 31.9889 170.426C31.9889 170.426 37.5484 161.888 41.1796 161.888C41.204 161.894 47.8279 172.989 51.6599 171.282Z" fill="black"/>
<path opacity="0.05" d="M82.6809 166.801C82.6809 166.801 82.2551 173.845 92.7293 177.902C92.7293 177.902 103.635 178.97 96.1477 184.302C88.6601 189.634 66.0025 182.808 66.0025 182.808C66.0025 182.808 66.4283 175.977 68.9952 170.426C68.9952 170.432 81.3914 169.576 82.6809 166.801Z" fill="black"/>
<path d="M0.937454 19.347C4.24028 15.4543 11.2778 29.9501 11.2778 29.9501L36.9036 35.8164C38.5473 35.3124 40.0012 34.3263 41.0762 32.9865C38.9269 33.0667 36.7964 32.5607 34.9134 31.5228C33.0305 30.485 31.4664 28.9545 30.3892 27.0959L36.9949 26.7254C37.664 26.7306 38.3282 26.6111 38.9534 26.3732C40.2186 25.7963 40.7782 24.3935 41.4594 23.185C43.2855 19.8724 46.2659 17.3441 49.8351 16.0798C52.2012 15.2418 54.8411 14.9503 56.8726 13.4928C58.3385 12.4422 59.3361 10.8936 60.5222 9.5394C66.1485 3.05364 75.467 1.25608 84.0677 0.138689C85.5884 -0.0617134 87.3219 -0.189245 88.4654 0.81884C89.2501 1.50507 89.5603 2.57996 90.2415 3.36942C91.4033 4.72366 93.3679 4.99692 95.138 5.33093C97.3664 5.67412 99.4972 6.48326 101.391 7.7054C102.326 8.31842 103.12 9.12259 103.721 10.0647C104.322 11.0069 104.715 12.0656 104.876 13.1709C105.217 16.5413 102.753 19.766 103.21 23.1243C103.349 24.1566 103.763 25.1404 103.818 26.1607C103.814 27.1422 103.658 28.1172 103.356 29.0513C102.613 31.8994 102.042 34.863 102.547 37.7597C103.051 40.6564 104.827 43.4803 107.607 44.5552C104.037 45.3423 100.302 44.8274 97.0783 43.1038C93.9519 41.3184 91.6527 38.0208 91.5432 34.4682C91.5432 34.3832 91.5432 34.2982 91.5432 34.2132L91.1722 34.3589C91.1174 34.5593 91.0627 34.7719 91.014 34.9966L90.4605 35.1545C90.2505 36.4232 90.2505 37.7177 90.4605 38.9864L94.3107 42.0592C94.3107 42.0592 94.3107 42.2839 94.2621 42.6665L94.3107 42.703C94.3107 42.703 94.3107 42.8852 94.2682 43.207L101.798 47.8952C106.668 51.6315 110.277 56.7661 112.139 62.6096L118.969 73.2249C118.969 73.2249 123.373 77.3362 125.794 77.986L146.274 95.7307C146.274 95.7307 153.366 99.5869 153.336 103.437C153.336 103.514 153.336 103.593 153.336 103.674C153.336 103.751 153.336 103.828 153.336 103.905C153.336 103.978 153.32 104.05 153.287 104.123C153.287 104.196 153.245 104.263 153.22 104.336V104.372C153.22 104.439 153.172 104.506 153.141 104.573V104.615L153.044 104.81V104.858L152.934 105.04L152.898 105.095L152.776 105.271L152.728 105.332L152.588 105.502L152.527 105.569L152.375 105.727L152.302 105.799L152.138 105.951L152.052 106.03L151.87 106.182L151.773 106.261L151.572 106.407L151.469 106.486L151.237 106.644L151.14 106.71L150.775 106.929C142.868 111.471 140.867 99.7873 140.867 99.7873L117.084 84.2045C117.084 84.2045 97.4859 66.4598 97.4859 62.5671L93.2281 64.3889L93.3011 65.1541C93.3011 65.1541 93.3011 65.3242 93.3011 65.6217V65.8039C93.3011 65.8039 93.52 74.9131 82.0727 77.2754C82.0727 77.2754 71.6046 87.7632 71.2883 91.0971C71.2883 91.1639 71.2883 91.2247 71.2883 91.2915C71.2883 91.3583 71.2883 91.3218 71.2883 91.34C71.4708 93.8906 69.0073 98.8885 68.247 100.413L72.4136 103.893L72.371 104.5L72.4136 104.536L72.2554 106.698C76.9694 111.769 83.8123 119.293 84.5239 120.981C85.6249 123.581 85.6249 129.204 82.985 135.046L80.1201 160.795V168.295L81.4401 167.687V169.388C82.0773 169.142 82.6173 168.697 82.979 168.118C82.979 168.118 82.979 168.197 82.979 168.337C83.0154 169.594 83.6906 175.685 93.3193 179.359C93.3193 179.359 99.706 179.967 99.5417 182.602C99.6086 183.489 98.9031 184.624 96.8472 186.07C89.1406 191.481 65.8261 184.558 65.8261 184.558C65.8261 184.558 65.8261 184.485 65.8261 184.345C65.8261 184.345 66.2641 177.422 68.91 171.793C68.91 171.793 69.5183 171.75 70.4489 171.659V170.062L71.4099 169.898C71.4383 166.864 71.1385 163.837 70.5158 160.868C69.0534 153.985 68.629 146.924 69.2567 139.916C68.167 141.283 66.9445 142.538 65.6072 143.663L51.7085 165.671L50.0663 169.042C50.6745 169.479 51.2828 169.861 51.7815 170.171L48.9896 172.752C49.614 173.003 50.3117 173.003 50.9361 172.752C50.9361 172.752 50.7171 180.543 57.7607 182.056C60.5708 182.663 60.6803 183.744 59.555 184.764C58.0587 186.385 53.2109 187.928 50.7171 187.248C46.7513 186.167 30.4561 172.102 30.4561 172.102C31.9003 169.962 33.5394 167.96 35.3526 166.121C36.9462 164.529 38.6919 163.236 40.1456 163.236C40.1456 163.236 40.4801 163.789 41.0458 164.633L42.7854 163.023L42.9618 163.187C43.1078 162.708 43.2416 162.222 43.3572 161.742C43.3572 161.742 46.733 146.299 57.0734 134.603C57.0734 134.603 59.111 132.921 55.9603 127.364C55.9603 127.364 50.8631 121.328 46.4167 114.781C39.951 116.038 33.2967 115.522 28.2481 110.87L28.315 110.469L28.0292 110.22L30.2311 96.587C30.2311 96.587 29.2396 83.7126 45.3158 73.322C45.3158 73.322 54.0138 62.6096 57.0977 48.9762H57.2741L57.0977 46.6138C55.1148 48.126 33.984 45.3143 33.984 45.3143L6.00423 33.6302C4.41669 32.7618 -0.00531006 26.7436 0.0129395 22.3834C-0.0712585 21.2913 0.258728 20.2075 0.937454 19.347Z" fill="url(#paint0_linear)"/>
<path d="M42.1163 33.4299C41.3943 34.3462 40.4872 35.1005 39.4538 35.6435C38.4205 36.1866 37.2842 36.5062 36.1189 36.5816C37.9067 38.2384 39.9935 39.5408 42.2683 40.4196C48.8497 43.0006 56.8178 42.2415 62.4867 37.9419C63.8188 36.9278 65.0962 35.7193 66.7445 35.3246C68.1557 34.9784 69.6398 35.3246 71.0997 35.2456C72.9243 35.1383 74.6679 34.4563 76.0799 33.2975C77.492 32.1387 78.4997 30.5628 78.9583 28.7963C79.378 27.017 79.2077 25.1526 79.5118 23.3308C79.5617 23.0217 79.6288 22.7155 79.7125 22.4138C80.5641 19.3774 84.5421 16.1102 87.8936 16.9969C91.0565 17.8288 92.6806 22.7964 92.6136 25.6384C92.5467 28.7659 91.0322 31.7538 91.1295 34.8812C91.239 38.3853 93.4713 41.6403 96.5065 43.3832C99.6225 45.0731 103.247 45.5779 106.707 44.8042C104.006 43.7415 102.285 40.9541 101.792 38.1241C101.3 35.2942 101.859 32.3428 102.577 29.5372C102.871 28.6141 103.023 27.6517 103.027 26.683C102.972 25.6567 102.571 24.685 102.419 23.6466C101.975 20.3369 104.365 17.1547 104.037 13.8329C103.884 12.7498 103.503 11.7112 102.921 10.7851C102.338 9.85891 101.566 9.06609 100.655 8.4585C98.818 7.25269 96.7441 6.45341 94.5722 6.11439C92.8569 5.78645 90.9227 5.5071 89.8156 4.17716C89.1527 3.39984 88.8546 2.35532 88.0943 1.65695C86.9873 0.667083 85.3024 0.794608 83.8365 0.988938C75.4852 2.09419 66.4465 3.86139 60.9783 10.2621C59.8348 11.5981 58.8676 13.1285 57.4443 14.1608C55.4736 15.6001 52.9128 15.8855 50.6136 16.7114C47.1345 17.9785 44.2441 20.4795 42.4934 23.7377C41.8851 24.9522 41.2769 26.3125 40.0604 26.8834C39.4538 27.1199 38.8077 27.2394 38.1565 27.2356L31.7455 27.6C32.7732 29.4272 34.284 30.9373 36.1129 31.9654C37.9418 32.9935 40.0186 33.5001 42.1163 33.4299Z" fill="#F55F44"/>
<path d="M74.4452 33.5088C74.4452 33.5088 71.3431 33.8306 65.1449 32.3367C58.9468 30.8428 52.7427 35.5371 52.7427 35.5371L39.7017 36.6059L13.1939 30.4177C13.1939 30.4177 6.35104 16.1163 3.14554 19.9604C-0.059967 23.8044 6.13816 32.7679 8.06025 33.8367L35.2371 45.3507C35.2371 45.3507 55.7596 48.126 57.6817 46.6321L58.1074 52.3952L68.3687 47.4884L72.8394 37.031L74.4452 33.5088Z" fill="#FDB797"/>
<path opacity="0.05" d="M8.06624 33.6121L35.2187 45.1505C35.2187 45.1505 55.7413 47.9257 57.6634 46.4318L58.0892 52.1949L68.3505 47.2881L72.8394 36.8307L74.2445 33.7518H74.4452L72.8394 37.274L68.3505 47.7314L58.0892 52.6382L57.6634 46.8751C55.7413 48.369 35.2187 45.5938 35.2187 45.5938L8.06624 34.0555C6.49694 33.187 2.09925 27.0778 2.25131 22.7661C2.39121 27.0292 6.5456 32.7802 8.06624 33.6121Z" fill="black"/>
<path d="M92.2974 42.5754L101.062 48.126C105.813 51.8308 109.318 56.8941 111.111 62.64L117.741 73.0974C117.741 73.0974 121.999 77.154 124.371 77.7916L144.255 95.2935C144.255 95.2935 156.225 101.913 148.512 106.395C140.8 110.876 138.89 99.3501 138.89 99.3501L115.776 83.9798C115.776 83.9798 96.7499 66.478 96.7499 62.6339L89.907 65.6217L92.2974 42.5754Z" fill="#FDB797"/>
<path opacity="0.05" d="M96.7863 62.2148C96.7863 66.0589 115.812 83.5607 115.812 83.5607L138.926 98.931C138.926 98.931 140.848 110.469 148.549 105.975C150.313 104.949 151.043 103.807 151.122 102.666C151.207 103.953 150.513 105.247 148.549 106.407C140.854 110.888 138.926 99.3622 138.926 99.3622L115.812 83.9919C115.812 83.9919 96.7863 66.4901 96.7863 62.646L89.9434 65.6338L89.986 65.1844L96.7863 62.2148Z" fill="black"/>
<path d="M66.7445 106.765C66.7445 106.765 73.4354 127.941 73.2711 130.71C73.1069 133.479 70.7286 138.483 65.9173 142.576L52.4202 164.287L48.2658 172.946L40.0969 170.699C40.0969 170.699 43.1382 165.301 44.3182 160.412C44.3182 160.412 47.5967 145.175 57.6329 133.643C57.6329 133.643 59.6097 131.985 56.5563 126.502C56.5563 126.502 41.5203 108.429 41.0154 101.087L66.7445 106.765Z" fill="#FDB797"/>
<path opacity="0.05" d="M66.7445 106.765C66.7445 106.765 73.4354 127.941 73.2711 130.71C73.1069 133.479 70.7286 138.483 65.9173 142.576L52.4202 164.287L48.2658 172.946L40.0969 170.699C40.0969 170.699 43.1382 165.301 44.3182 160.412C44.3182 160.412 47.5967 145.175 57.6329 133.643C57.6329 133.643 59.6097 131.985 56.5563 126.502C56.5563 126.502 41.5203 108.429 41.0154 101.087L66.7445 106.765Z" fill="black"/>
<path opacity="0.1" d="M67.7117 101.488C67.7117 101.488 82.9181 117.708 83.9583 120.271C84.9984 122.834 85.0288 128.384 82.462 134.147L79.6822 159.55V169.157L71.343 170.633C71.343 170.633 71.7688 164.444 70.7044 159.532C70.7044 159.532 67.0548 144.35 71.1301 129.647C71.1301 129.647 72.2007 127.297 67.067 123.672C67.067 123.672 45.6868 113.852 42.0555 107.451L67.7117 101.488Z" fill="black"/>
<path d="M67.9246 101.488C67.9246 101.488 83.131 117.708 84.1712 120.271C85.2113 122.834 85.2417 128.384 82.6748 134.147L79.8951 159.55V169.157L71.5559 170.633C71.5559 170.633 71.9817 164.444 70.9173 159.532C70.9173 159.532 67.2677 144.35 71.343 129.647C71.343 129.647 72.4136 127.297 67.2799 123.672C67.2799 123.672 45.8997 113.852 42.2684 107.451L67.9246 101.488Z" fill="#FDB797"/>
<path opacity="0.05" d="M67.8151 101.488L67.9307 101.609L42.8037 107.475C46.4532 113.876 67.8151 123.696 67.8151 123.696C72.9488 127.34 71.8783 129.672 71.8783 129.672C67.8151 144.398 71.4525 159.556 71.4525 159.556C72.4379 164.08 72.152 169.679 72.1033 170.541L71.4525 170.657C71.4525 170.657 71.8783 164.469 70.8138 159.556C70.8138 159.556 67.1643 144.374 71.2396 129.672C71.2396 129.672 72.3102 127.321 67.1765 123.696C67.1765 123.696 45.7963 113.876 42.165 107.475L67.8151 101.488Z" fill="black"/>
<path d="M91.1964 32.1181C91.1964 32.1181 88.2038 36.8123 91.1964 43.0066L88.2038 58.3768L75.8015 56.6704L69.8162 49.8385L74.5485 33.3873C74.5485 33.3873 78.3987 34.8812 78.8062 24.4238L91.1964 32.1181Z" fill="#FDB797"/>
<path opacity="0.1" d="M93.7938 43.0066C93.7938 43.0066 92.9361 54.3202 91.8717 56.8829L92.7293 65.8464C92.7293 65.8464 92.9422 74.8098 81.8233 77.16C81.8233 77.16 71.1362 88.0485 71.3491 91.0364C71.562 94.0242 68.1436 100.425 68.1436 100.425L72.4014 104.069L72.1885 107.056L69.1959 104.069C69.1959 104.069 43.3268 123.064 29.6593 110.257L31.7943 96.8116C31.7943 96.8116 29.9696 85.3947 45.5835 75.1499C45.5835 75.1499 54.8837 63.3019 57.8763 49.8567C57.8763 49.8567 66.4283 49.0004 68.5633 45.8001L72.8211 32.9926L76.349 33.7395L73.034 47.9316C73.034 47.9316 76.8842 60.7392 87.5713 55.219L90.0043 40.037L93.7938 43.0066Z" fill="black"/>
<path d="M93.7938 42.3629C93.7938 42.3629 92.9361 53.6765 91.8717 56.2393L92.7293 65.2027C92.7293 65.2027 92.9422 74.1662 81.8233 76.5163C81.8233 76.5163 71.1362 87.4049 71.3491 90.3927C71.562 93.3805 68.1436 99.7812 68.1436 99.7812L72.4014 103.425L72.1885 106.413L69.1959 103.425C69.1959 103.425 43.3268 122.421 29.6593 109.613L31.7943 96.1679C31.7943 96.1679 30.8333 83.4697 46.4411 73.2249C46.4411 73.2249 54.8837 62.6582 57.8763 49.213C57.8763 49.213 66.4283 48.3568 68.5633 45.1564L72.8211 32.3489L76.349 33.0958L73.034 47.288C73.034 47.288 76.8842 60.0955 87.5713 54.5753L90.0043 39.3933L93.7938 42.3629Z" fill="#1A3748"/>
<path d="M173.068 96.0466H207.331V96.2592H173.068V96.0466Z" fill="#B4ABAB"/>
<path d="M173.919 94.5525H206.473V94.765H173.919V94.5525Z" fill="#B4ABAB"/>
<path d="M176.06 93.0587H205.834V93.2713H176.06V93.0587Z" fill="#B4ABAB"/>
<path d="M178.414 91.5648H204.764V91.7774H178.414V91.5648Z" fill="#B4ABAB"/>
<path d="M180.762 90.0707H203.268V90.2833H180.762V90.0707Z" fill="#B4ABAB"/>
<path d="M183.329 88.5769H201.345V88.7895H183.329V88.5769Z" fill="#B4ABAB"/>
<path d="M187.179 87.083H198.353V87.2955H187.179V87.083Z" fill="#B4ABAB"/>
<path d="M171.79 97.7531H207.975V97.9656H171.79V97.7531Z" fill="#B4ABAB"/>
<path d="M171.145 99.4595H207.975V99.6721H171.145V99.4595Z" fill="#B4ABAB"/>
<path d="M170.72 101.166H208.614V101.378H170.72V101.166Z" fill="#B4ABAB"/>
<path d="M170.221 102.872H208.614V103.085H170.221V102.872Z" fill="#B4ABAB"/>
<path d="M170.434 104.585H208.614V104.798H170.434V104.585Z" fill="#B4ABAB"/>
<path d="M171.079 106.291H208.188V106.504H171.079V106.291Z" fill="#B4ABAB"/>
<path d="M172.149 107.998H207.331V108.21H172.149V107.998Z" fill="#B4ABAB"/>
<path d="M173.645 109.704H207.331V109.917H173.645V109.704Z" fill="#B4ABAB"/>
<path d="M175.567 111.411H205.834V111.623H175.567V111.411Z" fill="#B4ABAB"/>
<path d="M177.921 113.117H204.338V113.33H177.921V113.117Z" fill="#B4ABAB"/>
<path d="M180.482 114.829H202.629V115.042H180.482V114.829Z" fill="#B4ABAB"/>
<path d="M183.475 116.536H199.204V116.749H183.475V116.536Z" fill="#B4ABAB"/>
<path d="M203.931 90.9575H204.143V113.603H203.931V90.9575Z" fill="#B4ABAB"/>
<path d="M205.215 92.6639H205.427V112.109H205.215V92.6639Z" fill="#B4ABAB"/>
<path d="M206.498 94.5828H206.71V110.402H206.498V94.5828Z" fill="#B4ABAB"/>
<path d="M207.781 97.5708H207.994V107.627H207.781V97.5708Z" fill="#B4ABAB"/>
<path d="M202.222 89.4635H202.434V115.097H202.222V89.4635Z" fill="#B4ABAB"/>
<path d="M200.513 88.3948H200.725V115.953H200.513V88.3948Z" fill="#B4ABAB"/>
<path d="M198.804 87.5385H199.016V116.591H198.804V87.5385Z" fill="#B4ABAB"/>
<path d="M197.088 86.9009H197.301V117.234H197.088V86.9009Z" fill="#B4ABAB"/>
<path d="M195.379 86.2632H195.591V117.878H195.379V86.2632Z" fill="#B4ABAB"/>
<path d="M193.67 86.2632H193.882V117.878H193.67V86.2632Z" fill="#B4ABAB"/>
<path d="M191.961 86.2632H192.173V117.878H191.961V86.2632Z" fill="#B4ABAB"/>
<path d="M190.252 86.2632H190.464V117.878H190.252V86.2632Z" fill="#B4ABAB"/>
<path d="M188.536 86.9009H188.748V117.872H188.536V86.9009Z" fill="#B4ABAB"/>
<path d="M186.827 87.3258H187.039V117.659H186.827V87.3258Z" fill="#B4ABAB"/>
<path d="M185.118 87.757H185.33V117.234H185.118V87.757Z" fill="#B4ABAB"/>
<path d="M183.409 88.6073H183.621V116.378H183.409V88.6073Z" fill="#B4ABAB"/>
<path d="M181.699 89.4635H181.912V115.741H181.699V89.4635Z" fill="#B4ABAB"/>
<path d="M179.99 90.9575H180.202V114.884H179.99V90.9575Z" fill="#B4ABAB"/>
<path d="M178.275 91.5951H178.487V113.603H178.275V91.5951Z" fill="#B4ABAB"/>
<path d="M176.566 92.8763H176.778V112.534H176.566V92.8763Z" fill="#B4ABAB"/>
<path d="M174.857 94.3705H175.069V111.253H174.857V94.3705Z" fill="#B4ABAB"/>
<path d="M173.147 95.6517H173.36V109.334H173.147V95.6517Z" fill="#B4ABAB"/>
<path d="M171.438 98.427H171.65V107.415H171.438V98.427Z" fill="#B4ABAB"/>
<path d="M191.778 118.516C193.682 118.527 195.579 118.267 197.41 117.744C201.948 116.427 205.372 113.73 207.312 109.941C209.049 106.418 209.48 102.395 208.529 98.5848C206.814 91.2974 200.202 84.2834 189.734 86.1599L189.381 86.2267C185.722 86.9304 182.256 88.4089 179.217 90.5626C161.845 102.769 157.928 101.135 157.928 101.117L157.283 100.747V103.455L157.752 103.407C163.457 102.799 172.35 109.322 177.179 113.245C180.779 116.227 185.207 118.039 189.868 118.437C190.516 118.489 191.153 118.516 191.778 118.516ZM193.085 86.7064C201.163 86.7064 206.272 92.6335 207.714 98.7791C209.307 105.575 206.692 114.155 197.173 116.919C194.825 117.577 192.376 117.801 189.947 117.581C185.46 117.195 181.198 115.449 177.733 112.577C172.952 108.672 164.151 102.253 158.147 102.52V102.01C159.832 102.204 165.179 101.463 179.728 91.2367C182.668 89.1522 186.022 87.7213 189.563 87.0404L189.91 86.9736C190.959 86.7931 192.021 86.7057 193.085 86.7125V86.7064Z" fill="#535461"/>
<path d="M158.999 99.9939H140.623C140.057 99.9939 139.514 100.218 139.114 100.618C138.713 101.018 138.488 101.56 138.488 102.125C138.488 102.691 138.713 103.233 139.114 103.633C139.514 104.032 140.057 104.257 140.623 104.257H158.999V100.006V99.9939Z" fill="#535461"/>
<path d="M156.432 99.9939H158.999V104.263H156.432V99.9939Z" fill="#F0E4E4"/>
<path d="M175.744 112.079L176.243 111.386C172.593 108.769 170.768 105.921 170.768 102.884C170.768 97.7042 176.194 93.678 176.243 93.6415L175.738 92.9492C175.501 93.1253 169.892 97.2609 169.905 102.884C169.905 106.206 171.863 109.297 175.744 112.079Z" fill="#535461"/>
<path opacity="0.1" d="M77.9365 31.8691C78.5752 30.5452 79.1104 28.3772 79.2503 24.8611L91.6526 32.5432C91.1471 33.4316 90.7877 34.3953 90.5882 35.3974C88.3645 36.1047 85.9821 36.1475 83.7343 35.5207C81.4865 34.8938 79.4713 33.6246 77.9365 31.8691Z" fill="black"/>
<path d="M86.525 35.531C79.9139 35.531 74.5546 30.1802 74.5546 23.5797C74.5546 16.9792 79.9139 11.6284 86.525 11.6284C93.1361 11.6284 98.4955 16.9792 98.4955 23.5797C98.4955 30.1802 93.1361 35.531 86.525 35.531Z" fill="#FDB797"/>
<path opacity="0.1" d="M87.0907 20.6344C85.8742 21.1202 85.0653 22.2619 83.9096 22.8509C82.249 23.6951 80.26 23.2578 78.3988 23.604C76.3125 23.9987 74.4025 25.4258 72.3162 25.2315C69.8102 25.0129 67.9794 22.3894 68.0584 19.8813C68.1375 17.3733 69.7919 15.1263 71.8357 13.6689C73.8794 12.2114 76.3125 11.4098 78.7029 10.6325C81.7442 9.63044 85.0288 8.62236 88.1734 9.34502C91.1052 10.0191 99.0004 13.8936 98.5928 17.5615C97.9298 23.4582 90.1442 19.4198 87.0907 20.6344Z" fill="black"/>
<path d="M87.0907 20.2152C85.8742 20.701 85.0653 21.8427 83.9096 22.4317C82.249 23.2759 80.26 22.8386 78.3988 23.1848C76.3125 23.5795 74.4025 25.0066 72.3162 24.8123C69.8102 24.5937 67.9794 21.9702 68.0584 19.4622C68.1375 16.9541 69.7919 14.7071 71.8357 13.2497C73.8794 11.7922 76.3125 10.9906 78.7029 10.2133C81.7442 9.21125 85.0288 8.20317 88.1734 8.92583C91.1052 9.59992 99.0004 13.4744 98.5928 17.1423C97.9298 23.033 90.1442 18.9885 87.0907 20.2152Z" fill="#F55F44"/>
<path opacity="0.1" d="M69.2993 91.1337C69.2993 91.1337 68.6606 96.4717 66.9453 98.1781L69.2993 91.1337Z" fill="black"/>
<path opacity="0.1" d="M47.5055 73.8442C47.2943 75.4862 47.6737 77.1497 48.576 78.5385L47.5055 73.8442Z" fill="black"/>
<path opacity="0.1" d="M57.7424 60.1866C57.7424 60.1866 59.6645 64.0307 64.7982 66.5874L57.7424 60.1866Z" fill="black"/>
<g opacity="0.05">
<path opacity="0.05" d="M88.8728 55.1704C85.132 57.1137 82.2306 56.804 80.0348 55.5895C82.0056 56.1968 84.4264 56.0632 87.3765 54.5328L89.8095 39.3508L91.2268 40.4986L88.8728 55.1704Z" fill="black"/>
<path opacity="0.05" d="M74.1228 32.9744L69.865 45.7819C67.73 48.9823 59.1779 49.8386 59.1779 49.8386C56.1853 63.2838 47.7427 73.8504 47.7427 73.8504C32.1349 84.0953 33.0959 96.7935 33.0959 96.7935L30.9609 110.239C32.1117 111.317 33.4177 112.218 34.8355 112.911C32.8396 112.178 31.0126 111.051 29.4646 109.595L31.5874 96.1498C31.5874 96.1498 30.6264 83.4516 46.2343 73.2067C46.2343 73.2067 54.6769 62.64 57.6695 49.1949C57.6695 49.1949 66.2216 48.3386 68.3565 45.1382L72.6143 32.3307L76.1422 33.0776L76.0692 33.3874L74.1228 32.9744Z" fill="black"/>
<path opacity="0.05" d="M70.5157 104.051L72.0668 105.599L72.012 106.395L70.0169 104.403L70.5157 104.051Z" fill="black"/>
</g>
<path opacity="0.1" d="M61.6171 97.3279C61.6171 97.3279 52.6392 91.1396 45.3706 91.1396L61.6171 97.3279Z" fill="black"/>
<path opacity="0.1" d="M80.0045 74.9131C80.0045 74.9131 74.8709 71.7128 73.3746 69.15L80.0045 74.9131Z" fill="black"/>
<path d="M144.997 97.7593C144.997 97.7593 147.563 100.96 146.28 102.01C144.997 103.061 141.791 98.3666 141.791 98.3666L144.997 97.7593Z" fill="#FDB797"/>
<path d="M237.573 101.7C239.01 101.7 240.389 102.27 241.405 103.285C242.422 104.3 242.993 105.676 242.993 107.111C243.002 107.289 243.002 107.467 242.993 107.645C242.993 107.743 242.98 107.84 242.956 107.937V108.016C242.745 109.264 242.099 110.398 241.131 111.216L240.955 111.362C240.275 111.895 239.477 112.257 238.629 112.419C237.78 112.582 236.904 112.539 236.076 112.294C235.247 112.05 234.488 111.612 233.864 111.015C233.239 110.419 232.767 109.682 232.485 108.866C232.204 108.05 232.122 107.179 232.247 106.325C232.371 105.471 232.699 104.66 233.201 103.958C233.704 103.256 234.367 102.684 235.136 102.29C235.905 101.897 236.758 101.692 237.622 101.694L237.573 101.7Z" fill="url(#paint1_linear)"/>
<path d="M240.681 111.083C239.78 111.785 238.667 112.161 237.524 112.149C236.381 112.138 235.275 111.741 234.388 111.021C233.5 110.302 232.883 109.304 232.637 108.19C232.391 107.075 232.53 105.91 233.033 104.885C233.535 103.86 234.371 103.035 235.403 102.545C236.435 102.055 237.604 101.929 238.717 102.188C239.83 102.446 240.823 103.073 241.534 103.968C242.244 104.862 242.629 105.97 242.628 107.111C242.637 107.277 242.637 107.443 242.628 107.609C242.628 107.698 242.617 107.789 242.597 107.882V107.955C242.399 109.121 241.793 110.18 240.888 110.943L240.681 111.083Z" fill="#3AD29F"/>
<path d="M240.681 111.083H240.505C240.438 110.378 238.473 109.261 236.855 108.356C235.158 107.39 234.106 106.771 233.936 106.249C233.711 105.581 234.38 104.797 235.097 104.36C235.949 103.832 237.165 103.583 238.029 104.445C239.43 105.649 240.953 106.703 242.573 107.591L242.542 107.864V107.937C242.409 107.864 239.252 106.115 237.804 104.658C237.086 103.947 236.046 104.172 235.316 104.658C234.586 105.143 234.179 105.733 234.307 106.127C234.434 106.522 235.839 107.342 237.068 108.034C238.814 109.036 240.62 110.056 240.845 110.925L240.681 111.083Z" fill="#F0E4E4"/>
<path d="M43.7526 161.681C43.7526 161.681 49.2269 166.807 52.481 168.726L49.5249 171.501L40.1031 170.214V165.088L43.7526 161.681Z" fill="#F0E4E4"/>
<path d="M79.2563 167.232L81.1785 166.376V171.926L70.4914 173.633V168.726L79.2563 167.232Z" fill="#F0E4E4"/>
<path opacity="0.05" d="M82.6809 166.382C82.6809 166.382 82.2551 173.426 92.7293 177.483C92.7293 177.483 103.635 178.552 96.1477 183.884C88.6601 189.216 66.0025 182.39 66.0025 182.39C66.0025 182.39 66.4283 175.558 68.9952 170.007C68.9952 170.026 81.3914 169.181 82.6809 166.382Z" fill="black"/>
<path d="M82.6809 166.989C82.6809 166.989 82.2551 174.034 92.7293 178.09C92.7293 178.09 103.635 179.159 96.1477 184.491C88.6601 189.823 66.0025 182.997 66.0025 182.997C66.0025 182.997 66.4283 176.165 68.9952 170.614C68.9952 170.633 81.3914 169.789 82.6809 166.989Z" fill="#F0E4E4"/>
<path opacity="0.05" d="M51.4652 170.888C51.4652 170.888 51.2524 178.57 58.0952 180.064C64.9381 181.558 55.3155 186.039 51.4652 184.971C47.615 183.902 31.7943 170.025 31.7943 170.025C31.7943 170.025 37.3538 161.524 40.985 161.524C40.985 161.524 47.615 172.6 51.4652 170.888Z" fill="black"/>
<path d="M51.4652 171.495C51.4652 171.495 51.2524 179.177 58.0952 180.671C64.9381 182.165 55.3155 186.647 51.4652 185.578C47.615 184.509 31.7943 170.633 31.7943 170.633C31.7943 170.633 37.3538 162.131 40.985 162.131C40.985 162.131 47.615 173.208 51.4652 171.495Z" fill="#F0E4E4"/>
</g>
<defs>
<filter id="filter0_d" x="-3.99994" y="0" width="251" height="196.137" filterUnits="userSpaceOnUse" color-interpolation-filters="sRGB">
<feFlood flood-opacity="0" result="BackgroundImageFix"/>
<feColorMatrix in="SourceAlpha" type="matrix" values="0 0 0 0 0 0 0 0 0 0 0 0 0 0 0 0 0 0 127 0"/>
<feOffset dy="4"/>
<feGaussianBlur stdDeviation="2"/>
<feColorMatrix type="matrix" values="0 0 0 0 0 0 0 0 0 0 0 0 0 0 0 0 0 0 0.25 0"/>
<feBlend mode="normal" in2="BackgroundImageFix" result="effect1_dropShadow"/>
<feBlend mode="normal" in="SourceGraphic" in2="effect1_dropShadow" result="shape"/>
</filter>
<linearGradient id="paint0_linear" x1="76.6713" y1="188.25" x2="76.6713" y2="-0.007058" gradientUnits="userSpaceOnUse">
<stop stop-color="#808080" stop-opacity="0.25"/>
<stop offset="0.54" stop-color="#808080" stop-opacity="0.12"/>
<stop offset="1" stop-color="#808080" stop-opacity="0.1"/>
</linearGradient>
<linearGradient id="paint1_linear" x1="-5317.05" y1="5212.79" x2="-5317.05" y2="5020.06" gradientUnits="userSpaceOnUse">
<stop stop-color="#808080" stop-opacity="0.25"/>
<stop offset="0.54" stop-color="#808080" stop-opacity="0.12"/>
<stop offset="1" stop-color="#808080" stop-opacity="0.1"/>
</linearGradient>
</defs>
</svg>
