<svg width="495" height="385" viewBox="0 0 495 385" fill="none" xmlns="http://www.w3.org/2000/svg">
<g filter="url(#filter0_d)">
<path opacity="0.05" d="M107.4 342.829C107.4 342.829 106.974 358.205 120.67 361.196C134.366 364.186 115.106 373.156 107.4 371.017C99.6932 368.878 68.0273 341.116 68.0273 341.116C68.0273 341.116 79.1549 324.026 86.423 324.026C86.4717 324.038 99.7297 346.245 107.4 342.829Z" fill="black"/>
<path opacity="0.05" d="M169.49 333.859C169.49 333.859 168.637 347.959 189.602 356.078C189.602 356.078 211.431 358.218 196.444 368.89C181.457 379.562 136.107 365.9 136.107 365.9C136.107 365.9 136.959 352.225 142.097 341.116C142.097 341.128 166.909 339.414 169.49 333.859Z" fill="black"/>
<path d="M5.87625 38.7238C12.487 30.9325 26.5729 59.9464 26.5729 59.9464L77.8641 71.6882C81.1541 70.6793 84.0641 68.7057 86.2158 66.0239C81.9139 66.1844 77.6495 65.1716 73.8807 63.0943C70.112 61.017 66.9814 57.9537 64.8253 54.2336L78.0468 53.4921C79.386 53.5024 80.7154 53.2634 81.9669 52.7872C84.4992 51.6324 85.6193 48.8246 86.9828 46.4058C90.6378 39.7755 96.6031 34.7151 103.747 32.1844C108.483 30.5071 113.767 29.9236 117.833 27.0064C120.767 24.9036 122.764 21.8041 125.138 19.0935C136.399 6.112 155.051 2.51411 172.265 0.277592C175.309 -0.123522 178.779 -0.378783 181.067 1.63895C182.638 3.01246 183.259 5.16391 184.622 6.74406C186.948 9.45462 190.88 10.0016 194.423 10.6701C198.883 11.357 203.148 12.9765 206.938 15.4227C208.81 16.6497 210.4 18.2593 211.602 20.145C212.805 22.0308 213.593 24.1498 213.914 26.3622C214.596 33.1082 209.665 39.5625 210.578 46.2842C210.858 48.3506 211.686 50.3197 211.796 52.3617C211.788 54.3264 211.475 56.2779 210.871 58.1475C209.385 63.8482 208.241 69.7798 209.251 75.5778C210.262 81.3757 213.817 87.0278 219.381 89.1792C212.234 90.7546 204.758 89.7241 198.307 86.2741C192.049 82.7006 187.447 76.1004 187.228 68.9897C187.228 68.8196 187.228 68.6494 187.228 68.4792L186.485 68.771C186.376 69.1721 186.266 69.5975 186.169 70.0472L185.061 70.3633C184.64 72.9026 184.64 75.4937 185.061 78.0331L192.767 84.1835C192.767 84.1835 192.767 84.6332 192.67 85.399L192.767 85.4719C192.767 85.4719 192.767 85.8366 192.682 86.4808L207.754 95.8644C217.502 103.343 224.724 113.62 228.451 125.316L242.123 146.563C242.123 146.563 250.937 154.792 255.782 156.092L296.774 191.609C296.774 191.609 310.969 199.328 310.908 207.034C310.908 207.188 310.908 207.346 310.908 207.508C310.908 207.662 310.908 207.816 310.908 207.97C310.908 208.116 310.876 208.262 310.811 208.407C310.811 208.553 310.726 208.687 310.677 208.833V208.906C310.677 209.04 310.58 209.173 310.519 209.307V209.392L310.324 209.781V209.878L310.105 210.243L310.032 210.352L309.788 210.705L309.691 210.826L309.411 211.167L309.289 211.3L308.985 211.616L308.839 211.762L308.51 212.066L308.34 212.224L307.974 212.528L307.78 212.686L307.378 212.978L307.171 213.136L306.708 213.452L306.514 213.585L305.783 214.023C289.956 223.115 285.951 199.729 285.951 199.729L238.348 168.539C238.348 168.539 199.122 133.022 199.122 125.231L190.6 128.877L190.746 130.409C190.746 130.409 190.746 130.749 190.746 131.345V131.71C190.746 131.71 191.184 149.942 168.272 154.67C168.272 154.67 147.32 175.662 146.687 182.335C146.687 182.469 146.687 182.59 146.687 182.724C146.687 182.858 146.687 182.785 146.687 182.821C147.052 187.926 142.121 197.93 140.599 200.981L148.939 207.946L148.854 209.161L148.939 209.234L148.622 213.561C158.058 223.711 171.754 238.771 173.178 242.15C175.382 247.352 175.382 258.608 170.098 270.301L164.364 321.838V336.849L167.006 335.634V339.037C168.281 338.546 169.362 337.654 170.086 336.497C170.086 336.497 170.086 336.655 170.086 336.934C170.159 339.45 171.51 351.642 190.783 358.996C190.783 358.996 203.566 360.211 203.237 365.486C203.371 367.261 201.959 369.534 197.844 372.427C182.419 383.257 135.754 369.4 135.754 369.4C135.754 369.4 135.754 369.254 135.754 368.975C135.754 368.975 136.63 355.118 141.926 343.85C141.926 343.85 143.144 343.765 145.007 343.583V340.386L146.93 340.058C146.987 333.987 146.387 327.927 145.14 321.984C142.213 308.209 141.364 294.074 142.62 280.049C140.439 282.783 137.992 285.296 135.316 287.549L107.497 331.598L104.21 338.344C105.427 339.219 106.645 339.985 107.643 340.605L102.055 345.771C103.305 346.274 104.701 346.274 105.951 345.771C105.951 345.771 105.512 361.366 119.611 364.392C125.235 365.608 125.454 367.772 123.202 369.814C120.207 373.059 110.504 376.146 105.512 374.785C97.5747 372.621 64.9592 344.47 64.9592 344.47C67.8498 340.187 71.1305 336.179 74.7596 332.498C77.9493 329.313 81.4434 326.724 84.3531 326.724C84.3531 326.724 85.0227 327.83 86.155 329.52L89.6368 326.299L89.9899 326.627C90.2821 325.667 90.5499 324.694 90.7812 323.734C90.7812 323.734 97.5381 292.824 118.235 269.413C118.235 269.413 122.313 266.046 116.007 254.925C116.007 254.925 105.805 242.843 96.9051 229.739C83.9636 232.256 70.6447 231.222 60.5398 221.912L60.6737 221.109L60.1015 220.611L64.5087 193.323C64.5087 193.323 62.5242 167.555 94.7015 146.757C94.7015 146.757 112.111 125.316 118.283 98.028H118.637L118.283 93.2997C114.315 96.3263 72.0204 90.6986 72.0204 90.6986L16.0176 67.3124C12.8401 65.5742 3.98926 53.5286 4.02579 44.8013C3.85727 42.6155 4.51773 40.4462 5.87625 38.7238Z" fill="url(#paint0_linear)"/>
<path d="M88.2978 66.9113C86.8528 68.7454 85.037 70.2551 82.9688 71.342C80.9005 72.4289 78.6261 73.0687 76.2937 73.2197C79.8721 76.5357 84.0489 79.1426 88.6021 80.9016C101.775 86.0675 117.724 84.5481 129.07 75.9424C131.736 73.9125 134.293 71.4937 137.592 70.7036C140.417 70.0108 143.387 70.7036 146.309 70.5456C149.961 70.3308 153.451 68.9657 156.278 66.6463C159.104 64.327 161.121 61.1728 162.039 57.637C162.879 54.0756 162.538 50.344 163.147 46.6975C163.247 46.0788 163.381 45.466 163.548 44.8621C165.253 38.7846 173.215 32.2452 179.923 34.0199C186.254 35.6851 189.504 45.6279 189.371 51.3164C189.237 57.5762 186.205 63.5565 186.4 69.8163C186.619 76.8297 191.087 83.3448 197.162 86.8333C203.399 90.2157 210.653 91.2262 217.579 89.6775C212.173 87.5504 208.728 81.9713 207.742 76.307C206.756 70.6428 207.876 64.7355 209.312 59.1199C209.901 57.2723 210.205 55.3459 210.213 53.4071C210.104 51.3529 209.3 49.4081 208.996 47.3296C208.107 40.7051 212.892 34.3359 212.234 27.6871C211.928 25.5193 211.167 23.4405 210.001 21.5867C208.834 19.733 207.289 18.1461 205.465 16.93C201.789 14.5165 197.638 12.9167 193.291 12.2381C189.857 11.5817 185.986 11.0226 183.77 8.36067C182.443 6.80483 181.847 4.71418 180.325 3.31636C178.109 1.3351 174.737 1.59035 171.803 1.9793C155.087 4.19151 136.996 7.72864 126.051 20.54C123.762 23.2141 121.826 26.2771 118.978 28.3435C115.033 31.2242 109.908 31.7955 105.306 33.4486C98.342 35.9846 92.5567 40.9905 89.0526 47.5119C87.8351 49.9429 86.6177 52.6656 84.1828 53.8082C82.9686 54.2815 81.6756 54.5207 80.3722 54.5132L67.5403 55.2425C69.5972 58.8997 72.6211 61.9223 76.2818 63.9801C79.9425 66.0379 84.0991 67.0519 88.2978 66.9113Z" fill="#F55F44"/>
<path d="M153.006 67.0695C153.006 67.0695 146.797 67.7137 134.391 64.7236C121.985 61.7335 109.567 71.1293 109.567 71.1293L83.4649 73.2685L30.4084 60.8826C30.4084 60.8826 16.7121 32.2576 10.2962 39.9517C3.8802 47.6459 16.286 65.5866 20.1332 67.7259L74.5288 90.7717C74.5288 90.7717 115.606 96.3266 119.453 93.3364L120.305 104.871L140.843 95.0503L149.792 74.1194L153.006 67.0695Z" fill="#FDB797"/>
<path opacity="0.05" d="M20.1451 67.2761L74.4921 90.3705C74.4921 90.3705 115.569 95.9254 119.416 92.9353L120.268 104.47L140.807 94.6491L149.792 73.7182L152.604 67.5556H153.006L149.792 74.6055L140.807 95.5364L120.268 105.358L119.416 93.8225C115.569 96.8127 74.4921 91.2579 74.4921 91.2579L20.1451 68.1634C17.0041 66.4252 8.20195 54.1973 8.50632 45.5673C8.78633 54.1001 17.1015 65.6108 20.1451 67.2761Z" fill="black"/>
<path d="M188.738 85.2168L206.281 96.3264C215.789 103.742 222.805 113.876 226.393 125.377L239.664 146.308C239.664 146.308 248.186 154.427 252.934 155.704L292.732 190.734C292.732 190.734 316.692 203.983 301.254 212.954C285.817 221.924 281.994 198.854 281.994 198.854L235.731 168.09C235.731 168.09 197.649 133.059 197.649 125.365L183.953 131.345L188.738 85.2168Z" fill="#FDB797"/>
<path opacity="0.05" d="M197.722 124.526C197.722 132.22 235.804 167.25 235.804 167.25L282.067 198.015C282.067 198.015 285.914 221.109 301.327 212.115C304.858 210.06 306.319 207.775 306.477 205.49C306.647 208.067 305.26 210.656 301.327 212.977C285.926 221.948 282.067 198.878 282.067 198.878L235.804 168.113C235.804 168.113 197.722 133.083 197.722 125.389L184.026 131.369L184.111 130.469L197.722 124.526Z" fill="black"/>
<path d="M137.592 213.695C137.592 213.695 150.984 256.08 150.656 261.622C150.327 267.165 145.567 277.181 135.937 285.373L108.921 328.827L100.606 346.16L84.2559 341.663C84.2559 341.663 90.3431 330.857 92.705 321.072C92.705 321.072 99.267 290.576 119.355 267.493C119.355 267.493 123.312 264.175 117.2 253.199C117.2 253.199 87.1047 217.026 86.0942 202.33L137.592 213.695Z" fill="#FDB797"/>
<path opacity="0.05" d="M137.592 213.695C137.592 213.695 150.984 256.08 150.656 261.622C150.327 267.165 145.567 277.181 135.937 285.373L108.921 328.827L100.606 346.16L84.2559 341.663C84.2559 341.663 90.3431 330.857 92.705 321.072C92.705 321.072 99.267 290.576 119.355 267.493C119.355 267.493 123.312 264.175 117.2 253.199C117.2 253.199 87.1047 217.026 86.0942 202.33L137.592 213.695Z" fill="black"/>
<path opacity="0.1" d="M139.528 203.132C139.528 203.132 169.965 235.598 172.046 240.728C174.128 245.857 174.189 256.967 169.051 268.502L163.488 319.346V338.576L146.796 341.529C146.796 341.529 147.649 329.143 145.518 319.31C145.518 319.31 138.213 288.922 146.37 259.495C146.37 259.495 148.513 254.791 138.238 247.535C138.238 247.535 95.4443 227.88 88.1761 215.069L139.528 203.132Z" fill="black"/>
<path d="M139.954 203.132C139.954 203.132 170.39 235.598 172.472 240.728C174.554 245.857 174.615 256.967 169.477 268.502L163.914 319.346V338.576L147.222 341.529C147.222 341.529 148.075 329.143 145.944 319.31C145.944 319.31 138.639 288.922 146.796 259.495C146.796 259.495 148.939 254.791 138.664 247.535C138.664 247.535 95.8703 227.88 88.6021 215.069L139.954 203.132Z" fill="#FDB797"/>
<path opacity="0.05" d="M139.735 203.132L139.966 203.376L89.6735 215.117C96.9782 227.929 139.735 247.583 139.735 247.583C150.01 254.876 147.868 259.544 147.868 259.544C139.735 289.02 147.015 319.358 147.015 319.358C148.988 328.414 148.416 339.621 148.318 341.347L147.015 341.578C147.015 341.578 147.868 329.192 145.737 319.358C145.737 319.358 138.432 288.971 146.589 259.544C146.589 259.544 148.732 254.84 138.457 247.583C138.457 247.583 95.6634 227.929 88.3952 215.117L139.735 203.132Z" fill="black"/>
<path d="M186.534 64.2856C186.534 64.2856 180.544 73.6814 186.534 86.0795L180.544 116.844L155.72 113.428L143.74 99.7538L153.212 66.826C153.212 66.826 160.919 69.8161 161.734 48.8853L186.534 64.2856Z" fill="#FDB797"/>
<path opacity="0.1" d="M191.732 86.0794C191.732 86.0794 190.016 108.724 187.885 113.854L189.602 131.794C189.602 131.794 190.028 149.735 167.773 154.439C167.773 154.439 146.382 176.233 146.808 182.213C147.234 188.193 140.392 201.005 140.392 201.005L148.915 208.298L148.488 214.278L142.499 208.298C142.499 208.298 90.7205 246.319 63.3644 220.684L67.6376 193.773C67.6376 193.773 63.9853 170.921 95.2372 150.416C95.2372 150.416 113.852 126.701 119.842 99.7903C119.842 99.7903 136.959 98.0764 141.232 91.6707L149.755 66.0359L156.816 67.5309L150.181 95.9371C150.181 95.9371 157.887 121.572 179.278 110.523L184.148 80.1357L191.732 86.0794Z" fill="black"/>
<path d="M191.732 84.791C191.732 84.791 190.016 107.436 187.885 112.565L189.602 130.506C189.602 130.506 190.028 148.447 167.773 153.151C167.773 153.151 146.382 174.944 146.808 180.925C147.234 186.905 140.392 199.716 140.392 199.716L148.915 207.009L148.488 212.99L142.499 207.009C142.499 207.009 90.7205 245.03 63.3644 219.395L67.6376 192.484C67.6376 192.484 65.714 167.068 96.9538 146.563C96.9538 146.563 113.852 125.413 119.842 98.5018C119.842 98.5018 136.959 96.788 141.232 90.3823L149.755 64.7474L156.816 66.2425L150.181 94.6487C150.181 94.6487 157.887 120.284 179.278 109.235L184.148 78.8472L191.732 84.791Z" fill="#728EA2"/>
<path d="M350.403 192.242H418.982V192.667H350.403V192.242Z" fill="#B4ABAB"/>
<path d="M352.107 189.251H417.265V189.677H352.107V189.251Z" fill="#B4ABAB"/>
<path d="M356.392 186.261H415.987V186.687H356.392V186.261Z" fill="#B4ABAB"/>
<path d="M361.104 183.271H413.844V183.696H361.104V183.271Z" fill="#B4ABAB"/>
<path d="M365.803 180.281H410.849V180.706H365.803V180.281Z" fill="#B4ABAB"/>
<path d="M370.941 177.29H407.002V177.716H370.941V177.29Z" fill="#B4ABAB"/>
<path d="M378.647 174.3H401.012V174.726H378.647V174.3Z" fill="#B4ABAB"/>
<path d="M347.846 195.657H420.272V196.083H347.846V195.657Z" fill="#B4ABAB"/>
<path d="M346.555 199.073H420.272V199.498H346.555V199.073Z" fill="#B4ABAB"/>
<path d="M345.703 202.488H421.55V202.913H345.703V202.488Z" fill="#B4ABAB"/>
<path d="M344.705 205.904H421.55V206.329H344.705V205.904Z" fill="#B4ABAB"/>
<path d="M345.131 209.332H421.55V209.757H345.131V209.332Z" fill="#B4ABAB"/>
<path d="M346.422 212.747H420.698V213.172H346.422V212.747Z" fill="#B4ABAB"/>
<path d="M348.564 216.162H418.982V216.587H348.564V216.162Z" fill="#B4ABAB"/>
<path d="M351.559 219.578H418.982V220.004H351.559V219.578Z" fill="#B4ABAB"/>
<path d="M355.406 222.994H415.987V223.419H355.406V222.994Z" fill="#B4ABAB"/>
<path d="M360.118 226.409H412.992V226.835H360.118V226.409Z" fill="#B4ABAB"/>
<path d="M365.244 229.837H409.571V230.262H365.244V229.837Z" fill="#B4ABAB"/>
<path d="M371.233 233.253H402.716V233.678H371.233V233.253Z" fill="#B4ABAB"/>
<path d="M412.178 182.056H412.602V227.382H412.178V182.056Z" fill="#B4ABAB"/>
<path d="M414.746 185.471H415.171V224.391H414.746V185.471Z" fill="#B4ABAB"/>
<path d="M417.315 189.312H417.74V220.976H417.315V189.312Z" fill="#B4ABAB"/>
<path d="M419.884 195.292H420.309V215.421H419.884V195.292Z" fill="#B4ABAB"/>
<path d="M408.756 179.066H409.181V230.372H408.756V179.066Z" fill="#B4ABAB"/>
<path d="M405.335 176.926H405.76V232.086H405.335V176.926Z" fill="#B4ABAB"/>
<path d="M401.915 175.212H402.339V233.362H401.915V175.212Z" fill="#B4ABAB"/>
<path d="M398.481 173.936H398.906V234.65H398.481V173.936Z" fill="#B4ABAB"/>
<path d="M395.06 172.659H395.485V235.938H395.06V172.659Z" fill="#B4ABAB"/>
<path d="M391.639 172.659H392.064V235.938H391.639V172.659Z" fill="#B4ABAB"/>
<path d="M388.218 172.659H388.643V235.938H388.218V172.659Z" fill="#B4ABAB"/>
<path d="M384.797 172.659H385.222V235.938H384.797V172.659Z" fill="#B4ABAB"/>
<path d="M381.364 173.936H381.788V235.926H381.364V173.936Z" fill="#B4ABAB"/>
<path d="M377.943 174.786H378.367V235.5H377.943V174.786Z" fill="#B4ABAB"/>
<path d="M374.522 175.65H374.947V234.65H374.522V175.65Z" fill="#B4ABAB"/>
<path d="M371.1 177.352H371.525V232.936H371.1V177.352Z" fill="#B4ABAB"/>
<path d="M367.68 179.066H368.104V231.66H367.68V179.066Z" fill="#B4ABAB"/>
<path d="M364.258 182.056H364.683V229.946H364.258V182.056Z" fill="#B4ABAB"/>
<path d="M360.825 183.332H361.25V227.381H360.825V183.332Z" fill="#B4ABAB"/>
<path d="M357.405 185.896H357.829V225.242H357.405V185.896Z" fill="#B4ABAB"/>
<path d="M353.984 188.887H354.408V222.678H353.984V188.887Z" fill="#B4ABAB"/>
<path d="M350.562 191.451H350.987V218.836H350.562V191.451Z" fill="#B4ABAB"/>
<path d="M347.141 197.006H347.566V214.995H347.141V197.006Z" fill="#B4ABAB"/>
<path d="M387.851 237.215C391.664 237.237 395.46 236.717 399.125 235.671C408.207 233.033 415.062 227.637 418.945 220.052C422.42 213 423.283 204.948 421.38 197.322C417.947 182.736 404.713 168.697 383.761 172.453L383.055 172.587C375.73 173.995 368.793 176.955 362.711 181.265C327.941 205.697 320.1 202.427 320.1 202.391L318.81 201.649V207.07L319.747 206.973C331.167 205.758 348.966 218.812 358.633 226.664C365.838 232.634 374.7 236.26 384.029 237.057C385.327 237.162 386.602 237.215 387.851 237.215ZM390.469 173.547C406.637 173.547 416.863 185.41 419.749 197.711C422.938 211.312 417.703 228.487 398.65 234.018C393.95 235.335 389.049 235.784 384.187 235.343C375.206 234.572 366.676 231.077 359.741 225.327C350.171 217.511 332.555 204.664 320.539 205.198V204.177C323.911 204.566 334.612 203.083 363.734 182.614C369.619 178.442 376.332 175.578 383.42 174.215L384.114 174.082C386.213 173.72 388.339 173.545 390.469 173.559V173.547Z" fill="#535461"/>
<path d="M322.243 200.142H285.463C284.33 200.142 283.243 200.592 282.442 201.392C281.64 202.192 281.19 203.277 281.19 204.409C281.19 205.54 281.64 206.626 282.442 207.426C283.243 208.226 284.33 208.675 285.463 208.675H322.243V200.167V200.142Z" fill="#535461"/>
<path d="M317.105 200.142H322.243V208.687H317.105V200.142Z" fill="#F0E4E4"/>
<path d="M355.759 224.33L356.758 222.945C349.453 217.706 345.801 212.005 345.801 205.928C345.801 195.56 356.66 187.501 356.758 187.428L355.747 186.042C355.272 186.395 344.047 194.672 344.072 205.928C344.072 212.577 347.992 218.763 355.759 224.33Z" fill="#535461"/>
<path opacity="0.1" d="M159.993 63.7871C161.271 61.1373 162.343 56.798 162.623 49.7603L187.447 65.1363C186.435 66.9145 185.715 68.8433 185.316 70.8492C180.865 72.2648 176.097 72.3506 171.598 71.0959C167.099 69.8412 163.065 67.3007 159.993 63.7871Z" fill="black"/>
<path d="M177.184 71.1167C163.951 71.1167 153.224 60.4068 153.224 47.1956C153.224 33.9844 163.951 23.2747 177.184 23.2747C190.416 23.2747 201.143 33.9844 201.143 47.1956C201.143 60.4068 190.416 71.1167 177.184 71.1167Z" fill="#FDB797"/>
<path opacity="0.1" d="M178.316 41.3007C175.881 42.2731 174.262 44.5582 171.949 45.7373C168.625 47.4268 164.644 46.5517 160.919 47.2445C156.743 48.0346 152.92 50.891 148.744 50.502C143.728 50.0645 140.064 44.8135 140.222 39.7935C140.38 34.7735 143.692 30.2761 147.782 27.3589C151.873 24.4417 156.743 22.8373 161.527 21.2814C167.615 19.2759 174.189 17.2581 180.483 18.7046C186.351 20.0538 202.154 27.8087 201.338 35.1503C200.011 46.9528 184.428 38.8697 178.316 41.3007Z" fill="black"/>
<path d="M178.316 40.4618C175.881 41.4342 174.262 43.7194 171.949 44.8984C168.625 46.588 164.644 45.7128 160.919 46.4057C156.743 47.1957 152.92 50.0521 148.744 49.6632C143.728 49.2256 140.064 43.9746 140.222 38.9546C140.38 33.9346 143.692 29.4373 147.782 26.5201C151.873 23.6029 156.743 21.9984 161.527 20.4426C167.615 18.437 174.189 16.4193 180.483 17.8657C186.351 19.2149 202.154 26.9698 201.338 34.3114C200.011 46.1018 184.428 38.0065 178.316 40.4618Z" fill="#F55F44"/>
<path opacity="0.1" d="M142.706 182.408C142.706 182.408 141.427 193.092 137.994 196.508L142.706 182.408Z" fill="black"/>
<path opacity="0.1" d="M99.0844 147.802C98.6616 151.089 99.421 154.418 101.227 157.198L99.0844 147.802Z" fill="black"/>
<path opacity="0.1" d="M119.574 120.466C119.574 120.466 123.421 128.161 133.697 133.278L119.574 120.466Z" fill="black"/>
<g opacity="0.05">
<path opacity="0.05" d="M181.883 110.426C174.396 114.315 168.588 113.695 164.193 111.264C168.138 112.48 172.983 112.213 178.888 109.15L183.758 78.7621L186.595 81.0594L181.883 110.426Z" fill="#1A3748"/>
<path opacity="0.05" d="M152.36 65.9995L143.838 91.6344C139.565 98.04 122.447 99.7539 122.447 99.7539C116.457 126.665 99.5592 147.815 99.5592 147.815C68.3194 168.32 70.243 193.736 70.243 193.736L65.9697 220.647C68.2729 222.807 70.887 224.609 73.7249 225.996C69.73 224.53 66.0732 222.272 62.9748 219.359L67.2237 192.448C67.2237 192.448 65.3002 167.032 96.54 146.526C96.54 146.526 113.438 125.377 119.428 98.4655C119.428 98.4655 136.545 96.7516 140.819 90.3459L149.341 64.7111L156.402 66.2061L156.256 66.826L152.36 65.9995Z" fill="#1A3748"/>
<path opacity="0.05" d="M145.14 208.262L148.245 211.361L148.135 212.953L144.142 208.967L145.14 208.262Z" fill="#1A3748"/>
</g>
<path opacity="0.1" d="M127.329 194.806C127.329 194.806 109.36 182.42 94.8113 182.42L127.329 194.806Z" fill="black"/>
<path opacity="0.1" d="M164.133 149.942C164.133 149.942 153.857 143.536 150.863 138.407L164.133 149.942Z" fill="black"/>
<path d="M294.217 195.669C294.217 195.669 299.355 202.075 296.786 204.178C294.217 206.281 287.801 196.885 287.801 196.885L294.217 195.669Z" fill="#FDB797"/>
<path d="M479.513 203.558C482.39 203.558 485.149 204.699 487.184 206.73C489.218 208.761 490.361 211.515 490.361 214.388C490.38 214.744 490.38 215.101 490.361 215.457C490.361 215.652 490.336 215.846 490.288 216.041V216.199C489.866 218.698 488.572 220.967 486.635 222.604L486.282 222.896C484.921 223.962 483.325 224.688 481.626 225.012C479.927 225.337 478.175 225.251 476.516 224.763C474.857 224.274 473.339 223.396 472.089 222.202C470.839 221.008 469.893 219.533 469.33 217.9C468.767 216.267 468.603 214.524 468.852 212.815C469.102 211.106 469.757 209.481 470.763 208.076C471.769 206.671 473.097 205.527 474.636 204.739C476.175 203.951 477.881 203.542 479.611 203.545L479.513 203.558Z" fill="url(#paint1_linear)"/>
<path d="M485.734 222.337C483.93 223.742 481.702 224.495 479.415 224.472C477.127 224.45 474.914 223.654 473.138 222.215C471.361 220.775 470.126 218.777 469.633 216.547C469.141 214.316 469.42 211.984 470.426 209.933C471.431 207.881 473.104 206.23 475.17 205.249C477.236 204.269 479.575 204.016 481.803 204.533C484.032 205.05 486.019 206.306 487.44 208.096C488.862 209.886 489.634 212.104 489.63 214.388C489.649 214.72 489.649 215.053 489.63 215.385C489.63 215.563 489.61 215.745 489.569 215.932V216.078C489.172 218.412 487.96 220.53 486.148 222.058L485.734 222.337Z" fill="#3AD29F"/>
<path d="M485.734 222.338H485.381C485.247 220.928 481.314 218.691 478.076 216.88C474.679 214.948 472.573 213.708 472.232 212.662C471.782 211.325 473.121 209.757 474.558 208.882C476.262 207.825 478.697 207.326 480.426 209.052C483.23 211.461 486.278 213.571 489.52 215.349L489.459 215.896V216.042C489.191 215.896 482.873 212.395 479.975 209.478C478.539 208.056 476.457 208.505 474.996 209.478C473.535 210.45 472.719 211.629 472.975 212.419C473.231 213.209 476.043 214.85 478.502 216.236C481.996 218.242 485.612 220.284 486.063 222.022L485.734 222.338Z" fill="#F0E4E4"/>
<path d="M91.5729 323.613C91.5729 323.613 102.53 333.871 109.043 337.712L103.126 343.267L84.2682 340.69V330.431L91.5729 323.613Z" fill="#F0E4E4"/>
<path d="M162.635 334.723L166.482 333.009V344.118L145.092 347.534V337.713L162.635 334.723Z" fill="#F0E4E4"/>
<path opacity="0.05" d="M169.49 333.021C169.49 333.021 168.637 347.12 189.602 355.24C189.602 355.24 211.431 357.379 196.444 368.051C181.457 378.723 136.107 365.061 136.107 365.061C136.107 365.061 136.959 351.387 142.097 340.277C142.097 340.313 166.909 338.624 169.49 333.021Z" fill="black"/>
<path d="M169.49 334.236C169.49 334.236 168.637 348.336 189.602 356.456C189.602 356.456 211.431 358.595 196.444 369.267C181.457 379.939 136.107 366.277 136.107 366.277C136.107 366.277 136.959 352.603 142.097 341.493C142.097 341.529 166.909 339.84 169.49 334.236Z" fill="#F0E4E4"/>
<path opacity="0.05" d="M107.01 342.04C107.01 342.04 106.584 357.416 120.28 360.406C133.977 363.396 114.717 372.366 107.01 370.227C99.3037 368.088 67.638 340.314 67.638 340.314C67.638 340.314 78.7654 323.297 86.0336 323.297C86.0336 323.297 99.3037 345.467 107.01 342.04Z" fill="black"/>
<path d="M107.01 343.255C107.01 343.255 106.584 358.631 120.28 361.621C133.977 364.611 114.717 373.582 107.01 371.442C99.3037 369.303 67.638 341.529 67.638 341.529C67.638 341.529 78.7654 324.512 86.0336 324.512C86.0336 324.512 99.3037 346.683 107.01 343.255Z" fill="#F0E4E4"/>
</g>
<defs>
<filter id="filter0_d" x="0" y="0" width="494.375" height="384.564" filterUnits="userSpaceOnUse" color-interpolation-filters="sRGB">
<feFlood flood-opacity="0" result="BackgroundImageFix"/>
<feColorMatrix in="SourceAlpha" type="matrix" values="0 0 0 0 0 0 0 0 0 0 0 0 0 0 0 0 0 0 127 0"/>
<feOffset dy="4"/>
<feGaussianBlur stdDeviation="2"/>
<feColorMatrix type="matrix" values="0 0 0 0 0 0 0 0 0 0 0 0 0 0 0 0 0 0 0.25 0"/>
<feBlend mode="normal" in2="BackgroundImageFix" result="effect1_dropShadow"/>
<feBlend mode="normal" in="SourceGraphic" in2="effect1_dropShadow" result="shape"/>
</filter>
<linearGradient id="paint0_linear" x1="157.461" y1="376.791" x2="157.461" y2="-0.0141269" gradientUnits="userSpaceOnUse">
<stop stop-color="#808080" stop-opacity="0.25"/>
<stop offset="0.54" stop-color="#808080" stop-opacity="0.12"/>
<stop offset="1" stop-color="#808080" stop-opacity="0.1"/>
</linearGradient>
<linearGradient id="paint1_linear" x1="-10638.3" y1="10433.6" x2="-10638.3" y2="10047.9" gradientUnits="userSpaceOnUse">
<stop stop-color="#808080" stop-opacity="0.25"/>
<stop offset="0.54" stop-color="#808080" stop-opacity="0.12"/>
<stop offset="1" stop-color="#808080" stop-opacity="0.1"/>
</linearGradient>
</defs>
</svg>
